<svg xmlns="http://www.w3.org/2000/svg" width="31.017" height="45.549" viewBox="0 0 31.017 45.549"><defs><style>.a{fill:none;}.b,.c{stroke:none;}.c{fill:#090b17;}</style></defs><g transform="translate(-1498.339 -1898)"><g class="a" transform="translate(1498.339 1898)"><path class="b" d="M4.136,0H26.881a4.136,4.136,0,0,1,4.136,4.136V35.153a4.136,4.136,0,0,1-4.136,4.136H4.136A4.136,4.136,0,0,1,0,35.153V4.136A4.136,4.136,0,0,1,4.136,0Z"/><path class="c" d="M 4.135595321655273 3 C 3.509426116943359 3 2.999996185302734 3.509418487548828 2.999996185302734 4.135589599609375 L 2.999996185302734 35.15253829956055 C 2.999996185302734 35.77870941162109 3.509426116943359 36.28813934326172 4.135595321655273 36.28813934326172 L 26.88135528564453 36.28813934326172 C 27.50752449035645 36.28813934326172 28.01694488525391 35.77870941162109 28.01694488525391 35.15253829956055 L 28.01694488525391 4.135589599609375 C 28.01694488525391 3.509418487548828 27.50752449035645 3 26.88135528564453 3 L 4.135595321655273 3 M 4.135595321655273 0 L 26.88135528564453 0 C 29.16538619995117 0 31.01694488525391 1.851570129394531 31.01694488525391 4.135589599609375 L 31.01694488525391 35.15253829956055 C 31.01694488525391 37.43656921386719 29.16538619995117 39.28813934326172 26.88135528564453 39.28813934326172 L 4.135595321655273 39.28813934326172 C 1.851564407348633 39.28813934326172 -3.814697265625e-06 37.43656921386719 -3.814697265625e-06 35.15253829956055 L -3.814697265625e-06 4.135589599609375 C -3.814697265625e-06 1.851570129394531 1.851564407348633 0 4.135595321655273 0 Z"/></g><g transform="translate(2479 2100.451)"><g transform="translate(-982 -204.451)"><g transform="translate(0 0)"><path d="M38.215,58H21.369A3.373,3.373,0,0,0,18,61.369H41.584A3.373,3.373,0,0,0,38.215,58Z" transform="translate(-12.946 -13.82)"/><g transform="translate(9.388 14.121)"><rect width="2.458" height="2.458" transform="translate(0.084 6.15)"/><rect width="2.458" height="2.458" transform="translate(12.373 6.15)"/><rect width="3.277" height="3.277" transform="translate(5.819 11.885)"/><rect width="3.277" height="3.277" transform="translate(5.819 -0.405)"/><path d="M30.478,25a2.478,2.478,0,1,0,2.478,2.478A2.48,2.48,0,0,0,30.478,25Z" transform="translate(-23.02 -20.145)"/></g></g></g></g></g></svg>