<svg xmlns="http://www.w3.org/2000/svg" width="30.525" height="35.825" viewBox="0 0 30.525 35.825">
  <g id="Iconly_Light-outline_Location" data-name="Iconly/Light-outline/Location" transform="translate(0.25 0.25)">
    <g id="Location" transform="translate(0 0)">
      <path id="Location-2" data-name="Location" d="M13.271,34.764l-.106-.084-.73-.491a36.663,36.663,0,0,1-8.008-7.517l-.558-.73A18.9,18.9,0,0,1,0,15.059l.008-.5A15.034,15.034,0,0,1,15.012,0h.051l.451.008a15.041,15.041,0,0,1,14.511,15.1v.181c-.089,4.662-2.36,9.483-6.57,13.939a37.391,37.391,0,0,1-6.614,5.465l-.087.073a2.983,2.983,0,0,1-3.483,0ZM14.63,2.686A12.361,12.361,0,0,0,2.672,15.012l.033.631A16.225,16.225,0,0,0,6,24.323a33.858,33.858,0,0,0,8.658,8.132l.145.11a.319.319,0,0,0,.421,0l.149-.113a34.648,34.648,0,0,0,6.152-5.079c3.737-3.956,5.753-8.145,5.829-12.112l-.006-.587A12.359,12.359,0,0,0,15.055,2.68ZM9.292,15.276a5.719,5.719,0,1,1,5.719,5.737A5.734,5.734,0,0,1,9.292,15.276Zm2.672,0a3.047,3.047,0,1,0,3.047-3.057A3.055,3.055,0,0,0,11.964,15.276Z" transform="translate(0 0)" fill="#090b17" stroke="#090b17" stroke-width="0.5"/>
    </g>
  </g>
</svg>
