<svg xmlns="http://www.w3.org/2000/svg" width="37.534" height="35.721" viewBox="0 0 37.534 35.721">
  <g id="Group_1082" data-name="Group 1082" transform="translate(-0.203 0.25)">
    <g id="Group_1081" data-name="Group 1081" transform="translate(0 0)">
      <g id="Group_1052" data-name="Group 1052" transform="translate(1.204)">
        <path id="Path_4737" data-name="Path 4737" d="M1.787,3.572c0-.784.433-1.471.893-1.471H31.264c.46,0,.864.688.864,1.471V19.217H23.54l1.66-1.908A.312.312,0,0,0,25.253,17a.246.246,0,0,0-.225-.173H23.211a.23.23,0,0,0-.172.082L20.3,20.073a.311.311,0,0,0,0,.4l2.742,3.157a.228.228,0,0,0,.172.082h1.813a.245.245,0,0,0,.225-.173.312.312,0,0,0-.053-.305l-1.672-1.923h10.43V3.572C33.954,1.6,32.746,0,31.263,0H2.68C1.247,0,.083,1.493,0,3.369H0v7.156H1.787Z" transform="translate(33.954 35.221) rotate(180)" stroke="#090b17" stroke-width="0.5"/>
        <path id="Path_4738" data-name="Path 4738" d="M3.787,7.572c0-.784.433-1.471.893-1.471H33.264c.46,0,.864.688.864,1.471V23.217H25.54l1.66-1.908A.312.312,0,0,0,27.253,21a.246.246,0,0,0-.225-.173H25.211a.23.23,0,0,0-.172.082L22.3,24.073a.311.311,0,0,0,0,.4l2.742,3.157a.229.229,0,0,0,.172.082h1.813a.245.245,0,0,0,.225-.173.312.312,0,0,0-.053-.305l-1.672-1.923h10.43V7.572C35.954,5.6,34.746,4,33.263,4H4.68C3.248,4,2.084,5.492,2,7.368H2v7.156H3.787Z" transform="translate(-2 -4)" stroke="#090b17" stroke-width="0.5"/>
      </g>
      <rect id="Rectangle_465" data-name="Rectangle 465" width="6" height="5" transform="translate(0.203 7.408)" fill="#fff"/>
    </g>
    <rect id="Rectangle_466" data-name="Rectangle 466" width="8.197" height="4.736" transform="translate(29.54 23.3)" fill="#fff"/>
  </g>
</svg>
