<svg id="Group_1053" data-name="Group 1053" xmlns="http://www.w3.org/2000/svg" width="35.719" height="39.109" viewBox="0 0 35.719 39.109">
  <path id="Path_4742" data-name="Path 4742" d="M263.107,311.767a7.783,7.783,0,1,1,5.505-2.278A7.733,7.733,0,0,1,263.107,311.767Zm0-13.081a5.3,5.3,0,1,0,3.749,1.553A5.264,5.264,0,0,0,263.107,298.685Z" transform="translate(-248.096 -285.585)"/>
  <rect id="Rectangle_467" data-name="Rectangle 467" width="6.818" height="2.485" transform="translate(6.442 8.072) rotate(45)"/>
  <rect id="Rectangle_468" data-name="Rectangle 468" width="11.42" height="2.485" transform="translate(20.517 22.145) rotate(45)"/>
  <path id="Path_4743" data-name="Path 4743" d="M128.944,172.444a2.672,2.672,0,1,1,1.889-4.561h0a2.672,2.672,0,0,1-1.889,4.561Zm0-2.854a.185.185,0,0,0-.133.054.188.188,0,0,0,0,.261.19.19,0,0,0,.265,0,.188.188,0,0,0,0-.261h0A.179.179,0,0,0,128.944,169.59Z" transform="translate(-124.391 -161.833)"/>
  <path id="Path_4744" data-name="Path 4744" d="M696.907,743.114a5.2,5.2,0,1,1,3.682-1.524A5.176,5.176,0,0,1,696.907,743.114Zm0-7.928a2.719,2.719,0,1,0,1.922.8A2.719,2.719,0,0,0,696.907,735.185Z" transform="translate(-666.395 -704.004)"/>
  <rect id="Rectangle_469" data-name="Rectangle 469" width="2.485" height="6.226" transform="translate(9.503 22.144) rotate(45)"/>
  <rect id="Rectangle_470" data-name="Rectangle 470" width="2.485" height="11.023" transform="translate(26.551 5.098) rotate(45)"/>
  <path id="Path_4745" data-name="Path 4745" d="M84.818,660.436a4.019,4.019,0,0,1-2.842-6.86h0a4.019,4.019,0,1,1,2.842,6.86Zm0-5.551a1.522,1.522,0,0,0-1.085.447h0a1.53,1.53,0,1,0,1.085-.447Z" transform="translate(-80.8 -627.031)"/>
  <path id="Path_4746" data-name="Path 4746" d="M697.466,47.984a4.018,4.018,0,0,1-2.842-6.86h0a4.019,4.019,0,1,1,2.842,6.86Zm-1.085-5.1a1.531,1.531,0,1,0,2.171,0,1.535,1.535,0,0,0-2.171,0Z" transform="translate(-668.073 -39.95)"/>
</svg>
