<svg id="Group_1080" data-name="Group 1080" xmlns="http://www.w3.org/2000/svg" width="31.017" height="39.288" viewBox="0 0 31.017 39.288">
  <g id="Iconly_Light-outline_Document" data-name="Iconly/Light-outline/Document" transform="translate(10.189 11.981)">
    <g id="Document" transform="translate(0 0)">
      <path id="Document-2" data-name="Document" d="M.966,13.258a.968.968,0,0,1,0-1.936h9.759a.968.968,0,0,1,0,1.936ZM10.725,7.6H.966a.981.981,0,0,1,0-1.949h9.759a.98.98,0,1,1,0,1.949ZM.978,1.948A.98.98,0,0,1,.978,0H4.69a.98.98,0,0,1,0,1.948Z" transform="translate(0)" fill="#090b17" stroke="#090b17" stroke-width="0.7"/>
    </g>
  </g>
  <g id="Path_4771" data-name="Path 4771" transform="translate(0)" fill="none">
    <path d="M4.136,0H26.881a4.136,4.136,0,0,1,4.136,4.136V35.153a4.136,4.136,0,0,1-4.136,4.136H4.136A4.136,4.136,0,0,1,0,35.153V4.136A4.136,4.136,0,0,1,4.136,0Z" stroke="none"/>
    <path d="M 4.135595321655273 3 C 3.509426116943359 3 2.999996185302734 3.509418487548828 2.999996185302734 4.135589599609375 L 2.999996185302734 35.15253829956055 C 2.999996185302734 35.77870941162109 3.509426116943359 36.28813934326172 4.135595321655273 36.28813934326172 L 26.88135528564453 36.28813934326172 C 27.50752449035645 36.28813934326172 28.01694488525391 35.77870941162109 28.01694488525391 35.15253829956055 L 28.01694488525391 4.135589599609375 C 28.01694488525391 3.509418487548828 27.50752449035645 3 26.88135528564453 3 L 4.135595321655273 3 M 4.135595321655273 0 L 26.88135528564453 0 C 29.16538619995117 0 31.01694488525391 1.851570129394531 31.01694488525391 4.135589599609375 L 31.01694488525391 35.15253829956055 C 31.01694488525391 37.43656921386719 29.16538619995117 39.28813934326172 26.88135528564453 39.28813934326172 L 4.135595321655273 39.28813934326172 C 1.851564407348633 39.28813934326172 -3.814697265625e-06 37.43656921386719 -3.814697265625e-06 35.15253829956055 L -3.814697265625e-06 4.135589599609375 C -3.814697265625e-06 1.851570129394531 1.851564407348633 0 4.135595321655273 0 Z" stroke="none" fill="#090b17"/>
  </g>
</svg>
