<svg xmlns="http://www.w3.org/2000/svg" width="33.105" height="34.116" viewBox="0 0 33.105 34.116">
  <path id="Fill_997" data-name="Fill 997" d="M16.552,34.116a4.716,4.716,0,0,1-2.179-.533L1.58,26.891a2.856,2.856,0,0,1,0-5.111L3.65,20.7,1.58,19.613a2.856,2.856,0,0,1,0-5.111l2.07-1.083L1.58,12.336a2.856,2.856,0,0,1,0-5.111L14.373.533a4.721,4.721,0,0,1,4.36,0L31.524,7.226a2.855,2.855,0,0,1,0,5.111l-2.068,1.083L31.524,14.5a2.855,2.855,0,0,1,0,5.111L29.456,20.7l2.068,1.083a2.855,2.855,0,0,1,0,5.111L18.733,33.583A4.724,4.724,0,0,1,16.552,34.116ZM6.817,22.353,3.033,24.335l12.792,6.694a1.572,1.572,0,0,0,1.453,0l12.794-6.694-3.786-1.982-7.554,3.954a4.721,4.721,0,0,1-4.36,0L6.817,22.353h0Zm0-7.275-3.784,1.98,12.792,6.694a1.572,1.572,0,0,0,1.453,0l12.794-6.694-3.786-1.98L18.733,19.03a4.721,4.721,0,0,1-4.36,0ZM16.553,2.909a1.575,1.575,0,0,0-.727.178L3.033,9.781l12.792,6.7a1.572,1.572,0,0,0,1.453,0l12.794-6.7L17.278,3.087A1.567,1.567,0,0,0,16.553,2.909Z" fill="#090b17"/>
</svg>
