<svg xmlns="http://www.w3.org/2000/svg" width="37" height="37" viewBox="0 0 37 37">
  <g id="Group_1086" data-name="Group 1086" transform="translate(0.153 0.034)">
    <g id="Ellipse_43" data-name="Ellipse 43" transform="translate(-0.153 -0.034)" fill="#fff" stroke="#090b17" stroke-width="2.5">
      <circle cx="18.5" cy="18.5" r="18.5" stroke="none"/>
      <circle cx="18.5" cy="18.5" r="17.25" fill="none"/>
    </g>
    <path id="Path_4723" data-name="Path 4723" d="M18.094,16.32c-2.786-.708-3.683-1.48-3.683-2.629,0-1.322,1.243-2.251,3.305-2.251,2.172,0,2.991,1.039,3.053,2.581h2.691a4.884,4.884,0,0,0-3.919-4.675V6.656H15.875v2.66c-2.377.5-4.281,2.046-4.281,4.423,0,2.817,2.345,4.234,5.761,5.052,3.069.724,3.683,1.81,3.683,2.943,0,.834-.614,2.188-3.305,2.188-2.518,0-3.51-1.133-3.652-2.581H11.373c.157,2.676,2.141,4.187,4.5,4.675v2.676h3.683V26.063c2.392-.456,4.281-1.826,4.3-4.36-.016-3.463-2.991-4.659-5.761-5.383Z" transform="translate(1.138 1.717)"/>
  </g>
</svg>
