<svg id="Layer_1" data-name="Layer 1" xmlns="http://www.w3.org/2000/svg" viewBox="0 0 35.72 42.27"><defs><style>.cls-1{fill:none;}.cls-2{fill:#090b17;}</style></defs><polygon class="cls-1" points="19.08 18.39 19.08 18.39 19.08 18.49 19.08 20.55 19.08 38.69 19.08 39.27 20.21 39.27 32.42 39.27 32.42 39.27 32.72 39.27 32.72 38.5 32.72 38.5 32.72 18.49 32.72 18.39 29.91 18.39 19.08 18.39"/><path class="cls-2" d="M36.64,19.36a3,3,0,0,0-2.39-2.61l-.39,0h0l-.19,0H20a3.08,3.08,0,0,0-.61.06,3,3,0,0,0-2.25,2.09,3,3,0,0,0-.14.85V40H5.34A1.39,1.39,0,0,1,4,38.6V5.69A1.38,1.38,0,0,1,5.34,4.31H29.47a1.38,1.38,0,0,1,1.39,1.38v6.87h3V5.69a4.39,4.39,0,0,0-4.39-4.38H5.34a4.33,4.33,0,0,0-2.46.75A4.38,4.38,0,0,0,1,5.69V38.6H1A4.38,4.38,0,0,0,5.34,43H18.27a3,3,0,0,0,1.76.58H33.67a3,3,0,0,0,3-2.83c0-.06,0-.11,0-.17h0V19.69h0C36.67,19.58,36.65,19.47,36.64,19.36Zm-3,.43v20h0v.76H20V19.69H33.67Z" transform="translate(-0.95 -1.31)"/><circle class="cls-2" cx="25.94" cy="35.55" r="1.5"/></svg>