<svg xmlns="http://www.w3.org/2000/svg" width="19.666" height="19.666" viewBox="0 0 19.666 19.666"><defs><style>.a{fill:#606060;}</style></defs><path class="a" d="M13.52,0H6.146A6.146,6.146,0,0,0,0,6.146V13.52a6.146,6.146,0,0,0,6.146,6.146H13.52a6.146,6.146,0,0,0,6.146-6.146V6.146A6.146,6.146,0,0,0,13.52,0Zm4.3,13.52a4.307,4.307,0,0,1-4.3,4.3H6.146a4.307,4.307,0,0,1-4.3-4.3V6.146a4.307,4.307,0,0,1,4.3-4.3H13.52a4.307,4.307,0,0,1,4.3,4.3Z"/><g transform="translate(4.917 4.917)"><path class="a" d="M132.917,128a4.917,4.917,0,1,0,4.917,4.917A4.917,4.917,0,0,0,132.917,128Zm0,7.989a3.073,3.073,0,1,1,3.073-3.073A3.077,3.077,0,0,1,132.917,135.989Z" transform="translate(-128 -128)"/></g><g transform="translate(14.463 3.893)"><circle class="a" cx="0.655" cy="0.655" r="0.655"/></g></svg>