<?xml version="1.0" encoding="UTF-8"?> <svg xmlns="http://www.w3.org/2000/svg" xmlns:xlink="http://www.w3.org/1999/xlink" width="200" height="70" viewBox="0 0 200 70"><defs><clipPath id="clip-path"><rect id="Rectangle_2450" data-name="Rectangle 2450" width="200" height="70" transform="translate(0 0)" fill="#e4e4e4"></rect></clipPath></defs><g id="lowe_s" data-name="lowe's" clip-path="url(#clip-path)"><path id="Subtraction_1" data-name="Subtraction 1" d="M1533.837-2451.989H1436v-29.4h7.879v-4.38h15.76l25.264-10.724,25.294,10.724h15.76v4.38h7.879v29.4Zm-22.256-6.286.09.026a23.27,23.27,0,0,0,6.226,1.078,5.736,5.736,0,0,0,3.61-.955,5.426,5.426,0,0,0,1.895-3.9,4.3,4.3,0,0,0-.421-2.115l-.031-.06a.159.159,0,0,1-.029-.044.163.163,0,0,0-.031-.045l-.03-.059c-.735-1.426-2.319-2.605-4.842-3.6l-.09-.03-.045-.019c-.548-.222-2-.812-2.181-1.739a1.081,1.081,0,0,1,.361-.954,2.016,2.016,0,0,1,1.474-.507,7.782,7.782,0,0,1,2.827.685c1.293.536,2.436,1.013,2.436,1.013l.121.059v-3.6l-.03-.03a14.1,14.1,0,0,0-4.932-1.877c-.271-.028-.575-.028-.842-.028a5.773,5.773,0,0,0-5.113,2.442,5.072,5.072,0,0,0-.24,4.974c1.025,1.763,2.674,2.5,4.27,3.218l.212.094a15.322,15.322,0,0,1,1.774.889,1.584,1.584,0,0,1,.933,1.667,1.665,1.665,0,0,1-1.745,1.013,1.468,1.468,0,0,1-.361-.03h-.029a35.869,35.869,0,0,1-5.174-1.519l-.12-.03h0v3.963l.06.029Zm-14.948-16.145v16.5h10.647v-3.842h-6.165v-2.533h6.165v-3.723h-6.165v-2.533h6.165v-3.872Zm-49.475-3.545v20.048h11.369v-3.842h-6.917v-16.206Zm37.744,18.616h0a1.644,1.644,0,0,0,1.713,1.432h5.324a2.127,2.127,0,0,0,2.135-2.114v-14.389H1489.6v12.631h-2.707v-12.631h-3.94v12.631h-2.707v-12.631h-4.482v14.389a2.127,2.127,0,0,0,2.135,2.114h5.294A1.622,1.622,0,0,0,1484.9-2459.349Zm-22.436-15.071a2.128,2.128,0,0,0-2.135,2.116v12.273a2.127,2.127,0,0,0,2.135,2.114h8.633a2.127,2.127,0,0,0,2.135-2.114V-2472.3a2.128,2.128,0,0,0-2.135-2.116Zm62.649-.089a1.348,1.348,0,0,0-1.383,1.341,1.347,1.347,0,0,0,1.383,1.34,1.348,1.348,0,0,0,1.383-1.34A1.348,1.348,0,0,0,1525.116-2474.509Zm-16.873-3.456v4.766h3.129l.631-4.766Zm-39.489,16.176h-3.94v-8.759h3.94v8.758Zm56.363-10.278A1.1,1.1,0,0,1,1524-2473.2a1.1,1.1,0,0,1,1.112-1.131,1.11,1.11,0,0,1,1.113,1.131A1.1,1.1,0,0,1,1525.116-2472.067Zm-.541-1.876v1.55h.241v-.685h.27l.421.687h.271l-.451-.687a.4.4,0,0,0,.391-.417c0-.3-.182-.446-.542-.446Zm.542.686h0v-.029h-.271v-.475h.331c.16,0,.331.063.331.237C1525.506-2473.279,1525.314-2473.258,1525.117-2473.258Z" transform="translate(-1384.919 2509.241)" fill="#96969a"></path></g></svg> 