<?xml version="1.0" encoding="UTF-8"?> <svg xmlns="http://www.w3.org/2000/svg" xmlns:xlink="http://www.w3.org/1999/xlink" width="200" height="70" viewBox="0 0 200 70"><defs><clipPath id="clip-path"><rect id="Rectangle_2455" data-name="Rectangle 2455" width="200" height="70" transform="translate(0 0)" fill="#e4e4e4"></rect></clipPath></defs><g id="Mariott_intl" data-name="Mariott intl" clip-path="url(#clip-path)"><g id="Group_2475" data-name="Group 2475" transform="translate(36.465 14.8)"><path id="Path_4832" data-name="Path 4832" d="M99.8,154.984v-6.571h1.45v6.571Zm8.814,0-3.172-4.169v4.169h-1.428v-6.571h1.337l3.059,4.056v-4.056h1.428v6.571ZM115,149.75v5.234h-1.45V149.75H111.56v-1.337H117v1.337Zm3.739,5.234v-6.571h4.94V149.7H120.17v1.314h3.082v1.292H120.17v1.4h3.557v1.292Zm11.352,0-1.4-2.107h-1.133v2.107h-1.45v-6.571H129.1c1.541,0,2.47.816,2.47,2.175v.023a2.028,2.028,0,0,1-1.4,2.039l1.609,2.357h-1.677Zm.023-4.328c0-.634-.431-.929-1.133-.929h-1.427v1.881h1.45c.7,0,1.11-.385,1.11-.952Zm8.429,4.328-3.172-4.169v4.169h-1.427v-6.571h1.337l3.059,4.056v-4.056h1.428v6.571Zm8.406,0-.589-1.473h-2.787l-.589,1.473h-1.473l2.81-6.616h1.337l2.81,6.616Zm-1.994-4.894-.861,2.13h1.745Zm7.273-.34v5.234h-1.45V149.75h-1.994v-1.337h5.438v1.337Zm3.9,5.234v-6.571h1.45v6.571Zm7.16.113a3.363,3.363,0,0,1-3.467-3.376V151.7a3.479,3.479,0,0,1,6.956-.023v.023a3.374,3.374,0,0,1-3.489,3.4Zm1.994-3.4a1.983,1.983,0,0,0-1.926-2.062h-.068a1.974,1.974,0,0,0-1.971,2.039v.023a1.983,1.983,0,0,0,1.926,2.062h.068a1.98,1.98,0,0,0,1.971-2.062Zm8.452,3.286-3.172-4.169v4.169h-1.4v-6.571H170.5l3.059,4.056v-4.056h1.427v6.571Zm8.406,0-.589-1.473h-2.764l-.589,1.473h-1.473l2.81-6.616h1.337l2.81,6.616Zm-1.971-4.894-.861,2.13h1.745Zm5.121,4.894v-6.571h1.45v5.257H190v1.314Z" transform="translate(-77.187 -114.697)" fill="#96969a"></path><path id="Path_4833" data-name="Path 4833" d="M67.841,12.734a5.578,5.578,0,0,0-2.47-.657,3.509,3.509,0,0,0-2.946,1.677V27.145H57.191V8.361h4.781l.295,1.971a4.705,4.705,0,0,1,3.92-2.379,5.192,5.192,0,0,1,1.654.295v4.486ZM80.258,8.248A5.764,5.764,0,0,0,78.6,7.953a4.705,4.705,0,0,0-3.92,2.379l-.295-1.971H69.608V27.145h5.234V13.754a3.546,3.546,0,0,1,2.946-1.677,5.578,5.578,0,0,1,2.47.657ZM54,13.754V27.145h-4.8L48.9,25.2a6.508,6.508,0,0,1-5.03,2.357,5.028,5.028,0,0,1-5.053-5.37c0-6.639,7.817-7.568,9.97-7.795v-.544c0-1.088-.906-2.221-3.331-2.221A8.551,8.551,0,0,0,40.582,13.3V9.426a14.761,14.761,0,0,1,6.526-1.45C51.911,7.953,54,10.151,54,13.754Zm-5.234,4.283c-1.654,0-4.69.566-4.69,3.195a2.126,2.126,0,0,0,2.039,2.289c1.473,0,2.651-1.065,2.651-3.467ZM20.076,2.81l4.713,10.106-1.835,3.965L15.091,0,9.132,2.787l4.69,10.106c-.363.793-.952,2.062-1.9,4.1-2.153,4.6-3.807,5.891-6.752,5.891a7.739,7.739,0,0,1-2.379-.431L0,28.437a11.988,11.988,0,0,0,4.441.929c3.489,0,6.05-2.266,8.27-7.047l2.742-5.891,4.985,10.74h7.273l-3.15-6.775L26.4,16.428l4.985,10.74h7.273L26.058,0ZM124.42,8.361V2.153L119.186,4.6V8.361h-1.677v3.263h1.677V27.145h5.234V11.624h2.651V8.361ZM82.206,27.145H87.44V8.361H82.206ZM113.317,2.153,108.083,4.6V8.361h-1.677v3.263h1.677V27.145h5.234V11.624h2.651V8.361h-2.651ZM105.205,16.2v3.082c0,4.486-2.175,8.248-7.545,8.248-5.348,0-7.545-3.739-7.545-8.248V16.2c0-4.486,2.175-8.248,7.545-8.248s7.545,3.784,7.545,8.248Zm-5.28-.725c0-2.243-.544-3.829-2.266-3.829s-2.266,1.586-2.266,3.829v4.577c0,2.243.544,3.829,2.266,3.829,1.745,0,2.266-1.586,2.266-3.829Z" fill="#96969a"></path></g></g></svg> 