<?xml version="1.0" encoding="UTF-8"?> <svg xmlns="http://www.w3.org/2000/svg" xmlns:xlink="http://www.w3.org/1999/xlink" width="200" height="70" viewBox="0 0 200 70"><defs><clipPath id="clip-path"><rect id="Rectangle_2456" data-name="Rectangle 2456" width="200" height="70" transform="translate(0 0)" fill="#e4e4e4"></rect></clipPath></defs><g id="hilton" clip-path="url(#clip-path)"><g id="Hilton_Worldwide_logo" transform="translate(32.36 9.895)"><path id="Path_4834" data-name="Path 4834" d="M0-396.9v25.1H135.28V-422H0Zm133.019,0v22.844l-65.344-.024L2.32-374.111l-.036-22.82-.024-22.808H133.019Z" transform="translate(0 422)" fill="#96969a"></path><path id="Path_4835" data-name="Path 4835" d="M98-324.358v.642l.512.083c.274.036.678.107.892.143l.381.06-.024,11.981-.036,11.969-.857.1-.869.107v1.4h9.042v-1.4l-.857-.107-.869-.1-.036-5.449-.024-5.437h11.9v5.4c0,4.509-.024,5.414-.167,5.461a7.329,7.329,0,0,1-1.011.155l-.845.083v1.392h9.28v-1.4l-.8-.083a7.641,7.641,0,0,1-.952-.143c-.131-.047-.155-2.189-.155-11.993V-323.43l.476-.071c.262-.036.69-.107.952-.143l.476-.071V-325h-9.28v1.285l.571.071c.309.048.762.107,1.011.143l.44.071v10.208h-11.9V-323.43l.512-.083c1.4-.214,1.273-.131,1.273-.845V-325H98Z" transform="translate(-86.34 336.541)" fill="#96969a"></path><path id="Path_4836" data-name="Path 4836" d="M368.436-324.72a2.672,2.672,0,0,0,1.321,5.021,2.556,2.556,0,0,0,2.046-.94,2.576,2.576,0,0,0-.012-3.474A2.668,2.668,0,0,0,368.436-324.72Z" transform="translate(-323.354 336.594)" fill="#96969a"></path><path id="Path_4837" data-name="Path 4837" d="M457-324.417v.583l.809.1.8.107.036,12.16.024,12.148-.321.071c-.19.036-.559.1-.833.131l-.512.083v1.166h8.448v-1.166l-.5-.083c-.286-.036-.655-.1-.833-.131l-.333-.071V-325H457Z" transform="translate(-402.626 336.541)" fill="#96969a"></path><path id="Path_4838" data-name="Path 4838" d="M549.1-305.151l-2.415.726v4.1H543v1.785h3.557l.036,7.222c.048,8.043.048,7.96.869,9.1,1.249,1.713,4.985,1.892,9.435.44l.738-.25v-1.309l-.357.083a14.67,14.67,0,0,1-1.88.083c-2.165.012-2.856-.25-3.379-1.309l-.274-.559-.036-6.758-.036-6.746h4.533v-1.785h-4.521v-2.8a22.853,22.853,0,0,0-.083-2.784C551.543-305.889,550.424-305.556,549.1-305.151Z" transform="translate(-478.394 319.714)" fill="#96969a"></path><path id="Path_4839" data-name="Path 4839" d="M682.872-263.584a12.123,12.123,0,0,0-5.259,2.118,9.906,9.906,0,0,0-3.189,5.009,17.828,17.828,0,0,0-.191,5.877,8.317,8.317,0,0,0,2.332,4.89c1.547,1.559,3.676,2.32,6.9,2.451a10.826,10.826,0,0,0,8.21-2.653,9.167,9.167,0,0,0,2.939-6.817,12.268,12.268,0,0,0-.607-4.783,7.69,7.69,0,0,0-2.153-3.486,6.522,6.522,0,0,0-2.082-1.523,10.359,10.359,0,0,0-4.819-1.095C684.038-263.62,683.1-263.608,682.872-263.584Zm2.141,1.475a4.008,4.008,0,0,1,3.034,2.558c.749,1.618,1.011,3.189,1.011,6.175,0,5.961-1.452,8.65-4.7,8.662a3.473,3.473,0,0,1-2.76-1.083c-1.511-1.547-2.249-5.14-1.939-9.352s1.582-6.508,3.843-6.96A2.957,2.957,0,0,1,685.013-262.109Z" transform="translate(-593.875 282.454)" fill="#96969a"></path><path id="Path_4840" data-name="Path 4840" d="M876.755-262.7a11.051,11.051,0,0,0-4.878,2.189,6.121,6.121,0,0,1-.988.654,3.736,3.736,0,0,1-.107-1.249v-1.249H864v1.285l.571.071c.31.048.7.107.892.143l.321.071v16.253l-.678.071c-1.107.131-1.107.131-1.107.8v.583h8.566v-.595c0-.333-.035-.595-.083-.607s-.441-.071-.869-.155l-.773-.131v-13.8l.6-.393a10.373,10.373,0,0,1,1.546-.761,4.276,4.276,0,0,1,2.023-.393,2.706,2.706,0,0,1,2.344.857c.94.987,1.071,2.094,1.023,9.078l-.036,5.414-.773.131c-.428.083-.809.143-.857.155s-.1.274-.1.607v.595h8.567v-.583c0-.666,0-.666-1.095-.785l-.678-.083-.036-6.925c-.036-6.853-.048-6.925-.321-7.746a4.713,4.713,0,0,0-1.44-2.356,4.928,4.928,0,0,0-2.784-1.154A5.278,5.278,0,0,0,876.755-262.7Z" transform="translate(-761.202 281.753)" fill="#96969a"></path><path id="Path_4841" data-name="Path 4841" d="M354-258.417v.583l.571.071c.309.048.7.107.892.143l.321.072-.024,8.162-.036,8.174-.773.131c-.428.083-.809.143-.857.155s-.1.274-.1.607v.595h8.578l-.036-.547c-.048-.654-.131-.726-1.071-.821l-.69-.071V-259H354Z" transform="translate(-311.881 278.394)" fill="#96969a"></path></g></g></svg> 