<?xml version="1.0" encoding="UTF-8"?> <svg xmlns="http://www.w3.org/2000/svg" xmlns:xlink="http://www.w3.org/1999/xlink" width="200" height="70" viewBox="0 0 200 70"><defs><clipPath id="clip-path"><rect id="Rectangle_2447" data-name="Rectangle 2447" width="200" height="70" transform="translate(0 0)" fill="#e4e4e4"></rect></clipPath></defs><g id="merck" clip-path="url(#clip-path)"><g id="Group_2476" data-name="Group 2476" transform="translate(-697.997 -2486.17)"><path id="path14179" d="M102.779,160.495h6.692v21.6h-4.959V167.569l-6.344,14.524-6.677-14.542v14.542H86.864v-21.6h6.614l4.769,11.179Z" transform="translate(691.431 2349.875)" fill="#96969a"></path><path id="path14177" d="M96.061,160.495v21.6h12.462v-3.662h-7.631v-5.495h7.315v-3.7h-7.315v-4.955h7.631v-3.79Z" transform="translate(707.307 2349.875)" fill="#96969a"></path><path id="path14175" d="M107.449,171.493c0,8.04,8.391,14.473,17.231,10.17v-4.627c-6.8,4.766-12.725-.011-12.627-5.358a7.137,7.137,0,0,1,7.074-7.2,6.641,6.641,0,0,1,5.553,2.1v-4.812c-6.388-3.786-17.231.381-17.231,9.72" transform="translate(726.967 2349.679)" fill="#96969a"></path><path id="path14173" d="M114.517,181.961h4.593v-21.39h-4.593Z" transform="translate(739.169 2350.007)" fill="#96969a"></path><path id="path14171" d="M121.672,170.35l6.941-9.761h-5.365l-6.877,9.743,7.984,11.6h5.268Z" transform="translate(742.371 2350.037)" fill="#96969a"></path><path id="path14169" d="M101.418,160.493v21.6h4.848v-11.6l8.014,11.6h5.168l-6.344-9.069A5.966,5.966,0,0,0,117,166.98a6.776,6.776,0,0,0-7.074-6.488Zm4.848,3.594h2.116c3.578,0,3.769,2.339,3.769,3.212a3.171,3.171,0,0,1-3.243,3.09h-2.642Z" transform="translate(716.556 2349.871)" fill="#96969a"></path><path id="path13366" d="M77.748,167.334a10.8,10.8,0,0,1,21.6,0Zm0,21.6a10.8,10.8,0,0,1,10.8-10.8,10.8,10.8,0,0,1-10.8-10.8,10.8,10.8,0,0,0,0,21.6m0,0a10.8,10.8,0,1,0,21.6,0Zm10.8-10.8a10.8,10.8,0,0,1,10.8,10.8,10.8,10.8,0,1,0,0-21.6,10.8,10.8,0,0,1-10.8,10.8" transform="translate(657.051 2343.037)" fill="#96969a"></path></g></g></svg> 