<svg xmlns="http://www.w3.org/2000/svg" width="145.547" height="40.025" viewBox="0 0 145.547 40.025">
  <g id="logo" transform="translate(-364 -298)">
    <path id="Path_1" data-name="Path 1" d="M592.916,369.215H598.4a.146.146,0,0,0,.148-.144V346.94h-5.629Z" transform="translate(-193.122 -41.288)" fill="#090b17"/>
    <path id="Path_2" data-name="Path 2" d="M741.384,356.544l-3.182-.764a8.6,8.6,0,0,1-2.016-.764,1.281,1.281,0,0,1-.742-1.146,1.434,1.434,0,0,1,.891-1.252,4.267,4.267,0,0,1,2.079-.488,5.251,5.251,0,0,1,2.291.552,3.68,3.68,0,0,1,1.74,1.782l4.8-1.952A7.19,7.19,0,0,0,743.8,348.8a11.7,11.7,0,0,0-5.3-1.167,12,12,0,0,0-3.331.446,8.631,8.631,0,0,0-2.694,1.273,6.131,6.131,0,0,0-1.8,2.016,5.51,5.51,0,0,0-.658,2.716,4.912,4.912,0,0,0,.552,2.376,6.005,6.005,0,0,0,1.4,1.74,7.85,7.85,0,0,0,1.888,1.188,10.2,10.2,0,0,0,2.015.679l2.928.636a7.7,7.7,0,0,1,2.567.955,1.626,1.626,0,0,1,.742,1.379,1.566,1.566,0,0,1-.891,1.315,4.567,4.567,0,0,1-2.419.552,4.839,4.839,0,0,1-2.694-.785,5.361,5.361,0,0,1-1.931-2.4l-4.965,2.122a9.173,9.173,0,0,0,1.231,2.185,8.722,8.722,0,0,0,1.973,1.909,10.006,10.006,0,0,0,2.758,1.337,11.894,11.894,0,0,0,3.628.509,11.3,11.3,0,0,0,3.628-.552,8.837,8.837,0,0,0,2.8-1.506,6.932,6.932,0,0,0,1.8-2.185,5.559,5.559,0,0,0,.636-2.588,5.652,5.652,0,0,0-1.549-3.967A9.2,9.2,0,0,0,741.384,356.544Z" transform="translate(-308.102 -41.872)" fill="#090b17"/>
    <path id="Path_3" data-name="Path 3" d="M873.092,350.752a10.5,10.5,0,0,0-3.48-2.291,12.294,12.294,0,0,0-8.868,0,10.283,10.283,0,0,0-5.771,5.792,12.409,12.409,0,0,0,0,8.911,10.284,10.284,0,0,0,5.771,5.792,12.295,12.295,0,0,0,8.868,0,10.283,10.283,0,0,0,5.771-5.792,12.409,12.409,0,0,0,0-8.911A10.446,10.446,0,0,0,873.092,350.752Zm-2.885,10.46A5.534,5.534,0,0,1,869,363.078a5.251,5.251,0,0,1-1.761,1.167,5.507,5.507,0,0,1-4.137,0,5.292,5.292,0,0,1-1.74-1.167,5.529,5.529,0,0,1-1.209-1.867,7.257,7.257,0,0,1,0-5.007,5.534,5.534,0,0,1,1.209-1.867,5.3,5.3,0,0,1,1.74-1.167,5.509,5.509,0,0,1,4.137,0A5.263,5.263,0,0,1,869,354.337a5.539,5.539,0,0,1,1.209,1.867,7.259,7.259,0,0,1,0,5.007Z" transform="translate(-413.506 -41.872)" fill="#090b17"/>
    <path id="Path_4" data-name="Path 4" d="M1174.962,354.041a10.282,10.282,0,0,0-5.771-5.792,12.3,12.3,0,0,0-8.869,0,10.283,10.283,0,0,0-5.771,5.792,12.408,12.408,0,0,0,0,8.911,10.284,10.284,0,0,0,5.771,5.792,12.3,12.3,0,0,0,8.869,0,10.284,10.284,0,0,0,5.771-5.792,12.408,12.408,0,0,0,0-8.911ZM1169.785,361a5.535,5.535,0,0,1-1.21,1.867,5.255,5.255,0,0,1-1.761,1.167,5.438,5.438,0,0,1-2.058.4,5.384,5.384,0,0,1-2.079-.4,5.3,5.3,0,0,1-1.74-1.167,5.524,5.524,0,0,1-1.209-1.867,7.251,7.251,0,0,1,0-5.007,5.53,5.53,0,0,1,1.209-1.867,5.306,5.306,0,0,1,1.74-1.167,5.394,5.394,0,0,1,2.079-.4,5.449,5.449,0,0,1,2.058.4,5.263,5.263,0,0,1,1.761,1.167,5.54,5.54,0,0,1,1.21,1.867,7.262,7.262,0,0,1,0,5.007Z" transform="translate(-666.242 -41.694)" fill="#090b17"/>
    <path id="Path_5" data-name="Path 5" d="M393.2,348.076c-3.067-2.362-7.345-1.769-10.008-.161a8.786,8.786,0,0,0-2.1,1.776,8.678,8.678,0,0,0-2.744-2.26,8.505,8.505,0,0,0-4.2-.969,8.34,8.34,0,0,0-4.684,1.705q0-.611,0-1.221l-5.475.03v21.831h5.74q-.052-6.491-.1-12.982a4.38,4.38,0,0,1,1.13-3.228,3.9,3.9,0,0,1,5.65-.162,4.284,4.284,0,0,1,1.291,2.583v13.721l5.592.069q.029-6.733.058-13.467a4.667,4.667,0,0,1,1.291-2.744,3.869,3.869,0,0,1,2.744-1.291,3.707,3.707,0,0,1,2.583,1.13,3.916,3.916,0,0,1,1.1,2.587v13.785l5.2-.069V354.654l-.161-1.9A8.359,8.359,0,0,0,393.2,348.076Z" transform="translate(0 -40.879)" fill="#090b17"/>
    <path id="Path_6" data-name="Path 6" d="M655.974,323.441a2.586,2.586,0,0,1-1.72-.467,2.307,2.307,0,0,1-.782-1.4V311.153h5.785V306.02h-5.785V298.4H648v23.488a7.1,7.1,0,0,0,2.5,4.977,7.369,7.369,0,0,0,4.691,1.4,10.56,10.56,0,0,0,6.1-1.867l-2.189-3.889A5.772,5.772,0,0,1,655.974,323.441Z" transform="translate(-239.593 -0.336)" fill="#090b17"/>
    <circle id="Ellipse_3" data-name="Ellipse 3" cx="2.815" cy="2.815" r="2.815" transform="translate(399.818 298)" fill="#090b17"/>
    <path id="Path_7" data-name="Path 7" d="M1022.98,350.752a10.5,10.5,0,0,0-3.479-2.291,12.294,12.294,0,0,0-8.868,0,10.281,10.281,0,0,0-5.771,5.792,12.407,12.407,0,0,0,0,8.911,10.282,10.282,0,0,0,5.771,5.792,12.294,12.294,0,0,0,8.868,0c.307-.126.6-.265.891-.413v1.892a5.941,5.941,0,0,1-.258,1.241A4.965,4.965,0,0,1,1019.5,373c-1.287,1.848-3.754,2.153-4.544,2.2-.174.011-.307.014-.39.016a8.108,8.108,0,0,1-4.348-1.3,9.661,9.661,0,0,1-1.6-1.172l-3.19,4.08a14.39,14.39,0,0,0,8.853,3.065c1.5-.015,5.967-.06,9.077-3.629a10.017,10.017,0,0,0,.968-1.315,11.174,11.174,0,0,0,1.755-6.09v-9.4c.014-.249.023-.5.023-.757a11.73,11.73,0,0,0-.827-4.456A10.45,10.45,0,0,0,1022.98,350.752Zm-2.885,10.46a5.534,5.534,0,0,1-1.209,1.867,5.246,5.246,0,0,1-1.761,1.167,5.437,5.437,0,0,1-2.058.4,5.382,5.382,0,0,1-2.079-.4,5.293,5.293,0,0,1-1.74-1.167,5.521,5.521,0,0,1-1.209-1.867,7.252,7.252,0,0,1,0-5.007,5.527,5.527,0,0,1,1.209-1.867,5.3,5.3,0,0,1,1.74-1.167,5.394,5.394,0,0,1,2.079-.4,5.45,5.45,0,0,1,2.058.4,5.258,5.258,0,0,1,1.761,1.167,5.54,5.54,0,0,1,1.209,1.867,7.26,7.26,0,0,1,0,5.007Z" transform="translate(-539.957 -41.872)" fill="#090b17"/>
  </g>
</svg>
