<svg xmlns="http://www.w3.org/2000/svg" width="26.665" height="18.332" viewBox="0 0 26.665 18.332"><defs><style>.a{fill:#606060;}</style></defs><g transform="translate(0 -80)"><g transform="translate(0 80)"><path class="a" d="M25.532,81.767c-.723-1.287-1.508-1.523-3.106-1.613-1.6-.108-5.611-.153-9.089-.153s-7.5.045-9.1.152-2.381.327-3.111,1.615S0,85.265,0,89.161v.013c0,3.88.383,6.11,1.128,7.381.73,1.287,1.515,1.52,3.11,1.628s5.613.148,9.1.148,7.493-.055,9.091-.147c1.6-.108,2.383-.342,3.106-1.628.752-1.272,1.132-3.5,1.132-7.381v-.013C26.665,85.265,26.285,83.051,25.532,81.767ZM10,94.166v-10l8.333,5Z" transform="translate(0 -80)"/></g></g></svg>